<svg width="17" height="17" viewBox="0 0 17 17" fill="none" xmlns="http://www.w3.org/2000/svg">
<mask id="path-1-inside-1_212_1413" fill="white">
<path d="M10.3414 7.92429C10.261 7.92429 10.1863 7.90219 10.12 7.86663V7.86758C10.12 7.99406 10.0708 8.11284 9.98165 8.2018C9.89245 8.291 9.77376 8.34016 9.64742 8.34016C9.56586 8.34016 9.49027 8.31751 9.42324 8.28101C9.41648 8.39672 9.37023 8.50487 9.28772 8.58747C9.19852 8.67667 9.07983 8.72583 8.95341 8.72583C8.70225 8.72583 8.49828 8.5284 8.48358 8.28093C8.40587 8.32294 8.31801 8.34496 8.22739 8.33914C7.98031 8.32294 7.78682 8.10946 7.78682 7.85302V5.72741L7.54478 6.14674C7.45259 6.30712 7.28003 6.4067 7.09423 6.4067C7.00369 6.4067 6.91426 6.38295 6.83505 6.33756C6.73641 6.28038 6.66586 6.18858 6.63651 6.07877C6.60702 5.96888 6.62228 5.85396 6.6793 5.75547C6.67938 5.75547 7.47123 4.38422 7.51954 4.29999C7.52528 4.28732 7.54164 4.25059 7.55557 4.21928C7.56886 4.18939 7.58027 4.15872 7.5912 4.12788C7.83 3.45371 8.42129 3.03493 9.1344 3.03493C10.0604 3.03493 10.8138 3.85187 10.8138 4.85604L10.8139 7.45163C10.8139 7.57796 10.7648 7.69666 10.6757 7.78594C10.5865 7.87514 10.4678 7.9243 10.3413 7.9243L10.3414 7.92429ZM9.13441 3.28605C8.52165 3.28605 8.03326 3.63215 7.82789 4.21186C7.81476 4.24867 7.80107 4.28549 7.7851 4.32136C7.73877 4.42526 7.73877 4.42526 7.72571 4.44021L7.72398 4.43871C7.65933 4.56071 7.46724 4.89335 6.89674 5.88115C6.8733 5.92166 6.86708 5.9687 6.87904 6.01369C6.89115 6.05868 6.92018 6.0966 6.96037 6.1198C7.08512 6.19146 7.25597 6.14521 7.32708 6.02132L7.80367 5.19619C7.83214 5.14702 7.88972 5.12288 7.94494 5.13782C7.99984 5.15253 8.03799 5.20232 8.03799 5.25911V7.8531C8.03799 7.97549 8.13033 8.08112 8.24385 8.08859C8.30929 8.09206 8.37033 8.07011 8.41619 8.02433C8.45788 7.98264 8.48084 7.92711 8.48084 7.86772V6.17122C8.48084 6.10185 8.53708 6.0456 8.60646 6.0456C8.67584 6.0456 8.73208 6.10177 8.73208 6.17122L8.732 8.25334C8.732 8.37541 8.83134 8.47476 8.95342 8.47476C9.01273 8.47476 9.06842 8.45179 9.11019 8.4101C9.15188 8.36833 9.17484 8.31265 9.17484 8.25334V6.17122C9.17484 6.10184 9.23101 6.0456 9.30046 6.0456C9.36984 6.0456 9.42608 6.10176 9.42608 6.17122L9.426 7.84821V7.86772C9.426 7.98972 9.52535 8.08906 9.6475 8.08906C9.70673 8.08906 9.76226 8.06601 9.80427 8.02416C9.84596 7.98255 9.86892 7.92702 9.86892 7.86763V6.17113C9.86892 6.10176 9.92509 6.04551 9.99454 6.04551C10.0639 6.04551 10.1202 6.10168 10.1202 6.17113L10.12 7.45169C10.12 7.57385 10.2193 7.67319 10.3413 7.67319C10.4007 7.67319 10.4563 7.65015 10.498 7.60854C10.5398 7.56669 10.5627 7.511 10.5627 7.45169L10.5628 4.8561C10.5628 3.99047 9.92202 3.28607 9.1344 3.28607L9.13441 3.28605Z"/>
</mask>
<path d="M10.3414 7.92429C10.261 7.92429 10.1863 7.90219 10.12 7.86663V7.86758C10.12 7.99406 10.0708 8.11284 9.98165 8.2018C9.89245 8.291 9.77376 8.34016 9.64742 8.34016C9.56586 8.34016 9.49027 8.31751 9.42324 8.28101C9.41648 8.39672 9.37023 8.50487 9.28772 8.58747C9.19852 8.67667 9.07983 8.72583 8.95341 8.72583C8.70225 8.72583 8.49828 8.5284 8.48358 8.28093C8.40587 8.32294 8.31801 8.34496 8.22739 8.33914C7.98031 8.32294 7.78682 8.10946 7.78682 7.85302V5.72741L7.54478 6.14674C7.45259 6.30712 7.28003 6.4067 7.09423 6.4067C7.00369 6.4067 6.91426 6.38295 6.83505 6.33756C6.73641 6.28038 6.66586 6.18858 6.63651 6.07877C6.60702 5.96888 6.62228 5.85396 6.6793 5.75547C6.67938 5.75547 7.47123 4.38422 7.51954 4.29999C7.52528 4.28732 7.54164 4.25059 7.55557 4.21928C7.56886 4.18939 7.58027 4.15872 7.5912 4.12788C7.83 3.45371 8.42129 3.03493 9.1344 3.03493C10.0604 3.03493 10.8138 3.85187 10.8138 4.85604L10.8139 7.45163C10.8139 7.57796 10.7648 7.69666 10.6757 7.78594C10.5865 7.87514 10.4678 7.9243 10.3413 7.9243L10.3414 7.92429ZM9.13441 3.28605C8.52165 3.28605 8.03326 3.63215 7.82789 4.21186C7.81476 4.24867 7.80107 4.28549 7.7851 4.32136C7.73877 4.42526 7.73877 4.42526 7.72571 4.44021L7.72398 4.43871C7.65933 4.56071 7.46724 4.89335 6.89674 5.88115C6.8733 5.92166 6.86708 5.9687 6.87904 6.01369C6.89115 6.05868 6.92018 6.0966 6.96037 6.1198C7.08512 6.19146 7.25597 6.14521 7.32708 6.02132L7.80367 5.19619C7.83214 5.14702 7.88972 5.12288 7.94494 5.13782C7.99984 5.15253 8.03799 5.20232 8.03799 5.25911V7.8531C8.03799 7.97549 8.13033 8.08112 8.24385 8.08859C8.30929 8.09206 8.37033 8.07011 8.41619 8.02433C8.45788 7.98264 8.48084 7.92711 8.48084 7.86772V6.17122C8.48084 6.10185 8.53708 6.0456 8.60646 6.0456C8.67584 6.0456 8.73208 6.10177 8.73208 6.17122L8.732 8.25334C8.732 8.37541 8.83134 8.47476 8.95342 8.47476C9.01273 8.47476 9.06842 8.45179 9.11019 8.4101C9.15188 8.36833 9.17484 8.31265 9.17484 8.25334V6.17122C9.17484 6.10184 9.23101 6.0456 9.30046 6.0456C9.36984 6.0456 9.42608 6.10176 9.42608 6.17122L9.426 7.84821V7.86772C9.426 7.98972 9.52535 8.08906 9.6475 8.08906C9.70673 8.08906 9.76226 8.06601 9.80427 8.02416C9.84596 7.98255 9.86892 7.92702 9.86892 7.86763V6.17113C9.86892 6.10176 9.92509 6.04551 9.99454 6.04551C10.0639 6.04551 10.1202 6.10168 10.1202 6.17113L10.12 7.45169C10.12 7.57385 10.2193 7.67319 10.3413 7.67319C10.4007 7.67319 10.4563 7.65015 10.498 7.60854C10.5398 7.56669 10.5627 7.511 10.5627 7.45169L10.5628 4.8561C10.5628 3.99047 9.92202 3.28607 9.1344 3.28607L9.13441 3.28605Z" fill="#4CAF4F"/>
<path d="M10.3414 7.92429V7.47914H11.9141L10.5747 8.30341L10.3414 7.92429ZM10.12 7.86663H9.67485V7.12283L10.3304 7.47432L10.12 7.86663ZM9.98165 8.2018L9.66688 7.88703L9.66729 7.88662L9.98165 8.2018ZM9.42324 8.28101L8.97885 8.25503L9.01981 7.55443L9.63614 7.89007L9.42324 8.28101ZM9.28772 8.58747L9.60265 8.90208L9.60249 8.90224L9.28772 8.58747ZM8.48358 8.28093L8.27193 7.88932L8.88653 7.55714L8.92796 8.25454L8.48358 8.28093ZM8.22739 8.33914L8.19885 8.78338L8.19826 8.78334L8.22739 8.33914ZM7.78682 5.72741L7.40128 5.50488L8.23198 4.06574V5.72741H7.78682ZM7.54478 6.14674L7.15884 5.9249L7.15924 5.9242L7.54478 6.14674ZM6.83505 6.33756L6.61373 6.72381L6.61178 6.72268L6.83505 6.33756ZM6.63651 6.07877L7.06645 5.96336L7.06658 5.96386L6.63651 6.07877ZM6.6793 5.75547L6.29407 5.53241L6.42267 5.31032H6.6793V5.75547ZM7.51954 4.29999L7.92497 4.48381L7.91623 4.50309L7.9057 4.52145L7.51954 4.29999ZM7.55557 4.21928L7.14882 4.0384L7.14882 4.03839L7.55557 4.21928ZM7.5912 4.12788L8.01081 4.27651L8.01077 4.27663L7.5912 4.12788ZM10.8138 4.85604L10.3687 4.85605V4.85604H10.8138ZM10.8139 7.45163L11.2591 7.45162V7.45163H10.8139ZM10.6757 7.78594L10.9908 8.10042L10.9905 8.10071L10.6757 7.78594ZM10.3413 7.9243V8.36946H8.76858L10.108 7.54518L10.3413 7.9243ZM9.13441 3.28605V2.84089H9.72456L9.56244 3.40834L9.13441 3.28605ZM7.82789 4.21186L8.24749 4.36051L8.24715 4.36147L7.82789 4.21186ZM7.7851 4.32136L8.19178 4.5024L8.19167 4.50264L7.7851 4.32136ZM7.72571 4.44021L8.06094 4.7331L7.76972 5.0664L7.43475 4.77711L7.72571 4.44021ZM7.72398 4.43871L7.33065 4.23026L7.59221 3.73672L8.01495 4.10181L7.72398 4.43871ZM6.89674 5.88115L7.28222 6.10379L7.28203 6.10411L6.89674 5.88115ZM6.87904 6.01369L6.44919 6.12942L6.44882 6.12803L6.87904 6.01369ZM6.96037 6.1198L6.73865 6.50581L6.73781 6.50533L6.96037 6.1198ZM7.32708 6.02132L6.94099 5.79973L6.9416 5.79867L7.32708 6.02132ZM7.80367 5.19619L7.41819 4.97354L7.41846 4.97307L7.80367 5.19619ZM7.94494 5.13782L7.82974 5.56782L7.82864 5.56752L7.94494 5.13782ZM8.24385 8.08859L8.22033 8.53317L8.21461 8.53279L8.24385 8.08859ZM8.41619 8.02433L8.73096 8.3391L8.73068 8.33938L8.41619 8.02433ZM8.73208 6.17122H9.17723V6.17124L8.73208 6.17122ZM8.732 8.25334H8.28684V8.25332L8.732 8.25334ZM9.11019 8.4101L9.42526 8.72458L9.42466 8.72518L9.11019 8.4101ZM9.42608 6.17122H9.87123V6.17124L9.42608 6.17122ZM9.426 7.84821H8.98084V7.84819L9.426 7.84821ZM9.80427 8.02416L10.1187 8.33923L10.1185 8.33952L9.80427 8.02416ZM10.1202 6.17113H10.5653V6.17119L10.1202 6.17113ZM10.12 7.45169H9.67485L9.67485 7.45164L10.12 7.45169ZM10.498 7.60854L10.8127 7.92331L10.8124 7.92361L10.498 7.60854ZM10.5627 7.45169H10.1175V7.45168L10.5627 7.45169ZM10.5628 4.8561H11.0079V4.85611L10.5628 4.8561ZM9.1344 3.28607V3.73123H8.54425L8.70637 3.16378L9.1344 3.28607ZM10.3414 8.36945C10.1774 8.36945 10.0311 8.32407 9.90965 8.25895L10.3304 7.47432C10.3361 7.4774 10.3398 7.47858 10.3412 7.47897C10.3425 7.47931 10.3423 7.47914 10.3414 7.47914V8.36945ZM10.5652 7.86663V7.86758H9.67485V7.86663H10.5652ZM10.5652 7.86758C10.5652 8.11175 10.4693 8.34411 10.296 8.51699L9.66729 7.88662C9.67047 7.88344 9.67205 7.88072 9.67297 7.8785C9.67389 7.87627 9.67485 7.87284 9.67485 7.86758H10.5652ZM10.2964 8.51658C10.1237 8.68933 9.89172 8.78532 9.64742 8.78532V7.89501C9.65253 7.89501 9.65589 7.89408 9.65817 7.89314C9.66045 7.89219 9.6634 7.89051 9.66688 7.88703L10.2964 8.51658ZM9.64742 8.78532C9.48137 8.78532 9.3332 8.73886 9.21035 8.67196L9.63614 7.89007C9.64194 7.89322 9.64561 7.89442 9.64707 7.89482C9.64832 7.89516 9.64822 7.89501 9.64742 7.89501V8.78532ZM9.86764 8.30699C9.85483 8.5261 9.76595 8.73861 9.60265 8.90208L8.97278 8.27286C8.97443 8.27121 8.97539 8.26975 8.97619 8.26791C8.97707 8.26591 8.97845 8.26183 8.97885 8.25503L9.86764 8.30699ZM9.60249 8.90224C9.42971 9.07502 9.19775 9.17099 8.95341 9.17099V8.28067C8.95859 8.28067 8.96198 8.27973 8.96426 8.27879C8.96653 8.27785 8.96947 8.27617 8.97294 8.2727L9.60249 8.90224ZM8.95341 9.17099C8.46196 9.17099 8.0676 8.78527 8.03921 8.30733L8.92796 8.25454C8.92841 8.26211 8.9315 8.26875 8.93698 8.27398C8.93966 8.27653 8.94237 8.27817 8.94473 8.27913C8.9468 8.27998 8.94943 8.28067 8.95341 8.28067V9.17099ZM8.69524 8.67255C8.55145 8.75027 8.38097 8.79508 8.19885 8.78338L8.25593 7.8949C8.25593 7.8949 8.25688 7.89499 8.25923 7.89445C8.26174 7.89386 8.2661 7.89247 8.27193 7.88932L8.69524 8.67255ZM8.19826 8.78334C7.70399 8.75093 7.34167 8.33059 7.34167 7.85302H8.23198C8.23198 7.86808 8.23744 7.87967 8.24429 7.88723C8.25097 7.89459 8.2555 7.89487 8.25652 7.89494L8.19826 8.78334ZM7.34167 7.85302V5.72741H8.23198V7.85302H7.34167ZM8.17236 5.94995L7.93032 6.36928L7.15924 5.9242L7.40128 5.50488L8.17236 5.94995ZM7.93072 6.36857C7.75871 6.66783 7.43853 6.85186 7.09423 6.85186V5.96154C7.12152 5.96154 7.14647 5.94641 7.15884 5.9249L7.93072 6.36857ZM7.09423 6.85186C6.92588 6.85186 6.76017 6.80771 6.61373 6.7238L7.05637 5.95132C7.06834 5.95818 7.08149 5.96154 7.09423 5.96154V6.85186ZM6.61178 6.72268C6.41192 6.60681 6.26645 6.41825 6.20644 6.19367L7.06658 5.96386C7.06618 5.96234 7.06507 5.95965 7.06292 5.95686C7.0608 5.95409 7.05883 5.95274 7.05832 5.95244L6.61178 6.72268ZM6.20658 6.19417C6.14634 5.96976 6.17788 5.73308 6.29407 5.53241L7.06454 5.97854C7.06517 5.97744 7.06629 5.9749 7.06676 5.9713C7.06724 5.9677 7.06684 5.96482 7.06645 5.96336L6.20658 6.19417ZM6.6793 5.31032C6.46094 5.36756 6.29749 5.5266 6.29627 5.52865C6.29587 5.52934 6.29526 5.53037 6.29507 5.5307C6.29496 5.53089 6.29477 5.53121 6.2947 5.53132C6.29466 5.53139 6.29458 5.53153 6.29456 5.53156C6.2945 5.53167 6.29452 5.53164 6.29469 5.53135C6.29499 5.53083 6.2955 5.52995 6.29624 5.52867C6.2977 5.52614 6.29989 5.52234 6.3028 5.51732C6.30859 5.50729 6.31711 5.49255 6.32798 5.47372C6.34973 5.43608 6.38084 5.38221 6.41834 5.31727C6.49334 5.18742 6.59383 5.01339 6.69582 4.83673C6.90016 4.48282 7.10966 4.11989 7.13338 4.07852L7.9057 4.52145C7.88112 4.56431 7.67053 4.92913 7.46685 5.2819C7.36484 5.45858 7.26433 5.63264 7.18932 5.76252C7.15182 5.82746 7.12068 5.88137 7.09892 5.91905C7.08804 5.93789 7.07949 5.95269 7.07365 5.96278C7.07074 5.96783 7.06848 5.97174 7.06693 5.9744C7.06617 5.97572 7.06554 5.97681 7.06508 5.97761C7.06486 5.97798 7.0646 5.97844 7.06434 5.97888C7.06425 5.97905 7.06396 5.97954 7.06362 5.98012C7.0634 5.98049 7.06278 5.98156 7.06236 5.98226C7.06112 5.98434 6.89767 6.14339 6.6793 6.20063V5.31032ZM7.11411 4.11616C7.11901 4.10535 7.13454 4.07051 7.14882 4.0384L7.96231 4.40017C7.94875 4.43067 7.93155 4.46929 7.92497 4.48381L7.11411 4.11616ZM7.14882 4.03839C7.15501 4.02448 7.16186 4.0067 7.17163 3.97913L8.01077 4.27663C7.99868 4.31073 7.98271 4.35431 7.96231 4.40018L7.14882 4.03839ZM7.17159 3.97925C7.47309 3.12806 8.23197 2.58978 9.1344 2.58978V3.48009C8.6106 3.48009 8.18691 3.77936 8.01081 4.27651L7.17159 3.97925ZM9.1344 2.58978C10.3395 2.58978 11.259 3.64065 11.259 4.85604H10.3687C10.3687 4.06309 9.78133 3.48009 9.1344 3.48009V2.58978ZM11.259 4.85602L11.2591 7.45162L10.3687 7.45165L10.3687 4.85605L11.259 4.85602ZM11.2591 7.45163C11.2591 7.69575 11.1633 7.92758 10.9908 8.10042L10.3606 7.47146C10.3642 7.46793 10.3659 7.46494 10.3668 7.4626C10.3678 7.46026 10.3687 7.45682 10.3687 7.45163H11.2591ZM10.9905 8.10071C10.8177 8.27352 10.5857 8.36946 10.3413 8.36946V7.47914C10.3466 7.47914 10.35 7.47819 10.3523 7.47725C10.3545 7.47631 10.3575 7.47464 10.3609 7.47117L10.9905 8.10071ZM10.108 7.54518L10.108 7.54517L10.5747 8.30341L10.5746 8.30342L10.108 7.54518ZM9.13441 3.7312C8.71117 3.7312 8.39023 3.95761 8.24749 4.36051L7.40829 4.06321C7.6763 3.30669 8.33214 2.84089 9.13441 2.84089V3.7312ZM8.24715 4.36147C8.2331 4.40085 8.21485 4.45058 8.19178 4.5024L7.37842 4.14031C7.38729 4.12039 7.39641 4.0965 7.40863 4.06225L8.24715 4.36147ZM8.19167 4.50264C8.17129 4.54836 8.15421 4.58697 8.14114 4.61312C8.13303 4.62935 8.1199 4.65437 8.10085 4.68208C8.08156 4.71015 8.06249 4.73133 8.06094 4.7331L7.39049 4.14731C7.39154 4.14611 7.39119 4.1465 7.39067 4.14711C7.38999 4.1479 7.38826 4.14992 7.38599 4.15269C7.38092 4.15887 7.37428 4.16739 7.36712 4.17781C7.3532 4.19807 7.34541 4.21379 7.34472 4.21517C7.34421 4.21618 7.34453 4.21558 7.34604 4.21234C7.34751 4.2092 7.34958 4.20469 7.35256 4.19811C7.35864 4.18467 7.36673 4.16654 7.37853 4.14008L8.19167 4.50264ZM7.43475 4.77711L7.43302 4.77562L8.01495 4.10181L8.01668 4.1033L7.43475 4.77711ZM8.11732 4.64717C8.04765 4.77863 7.84875 5.12288 7.28222 6.10379L6.51125 5.65851C7.08574 4.66383 7.27101 4.3428 7.33065 4.23026L8.11732 4.64717ZM7.28203 6.10411C7.31765 6.04255 7.32758 5.96829 7.30926 5.89935L6.44882 6.12803C6.40658 5.96911 6.42894 5.80077 6.51144 5.65819L7.28203 6.10411ZM7.30889 5.89796C7.29057 5.82992 7.24555 5.77042 7.18293 5.73427L6.73781 6.50533C6.59481 6.42277 6.49173 6.28744 6.44919 6.12942L7.30889 5.89796ZM7.1821 5.73379C7.13142 5.70469 7.08214 5.70488 7.04811 5.71404C7.01421 5.72317 6.97074 5.74789 6.94099 5.79973L7.71316 6.24291C7.51915 6.58094 7.07577 6.69945 6.73865 6.50581L7.1821 5.73379ZM6.9416 5.79867L7.41819 4.97354L8.18914 5.41883L7.71255 6.24397L6.9416 5.79867ZM7.41846 4.97307C7.54704 4.75108 7.80949 4.63999 8.06124 4.70813L7.82864 5.56752C7.96995 5.60576 8.11724 5.54297 8.18887 5.4193L7.41846 4.97307ZM8.06014 4.70783C8.30987 4.77474 8.48315 5.00105 8.48315 5.25911H7.59284C7.59284 5.40359 7.68981 5.53033 7.82974 5.56781L8.06014 4.70783ZM8.48315 5.25911V7.8531H7.59284V5.25911H8.48315ZM8.48315 7.8531C8.48315 7.80237 8.46436 7.75626 8.43351 7.72097C8.40271 7.68573 8.34836 7.64935 8.27308 7.6444L8.21461 8.53279C7.83987 8.50813 7.59284 8.18169 7.59284 7.8531H8.48315ZM8.26736 7.64406C8.21476 7.64128 8.15052 7.66054 8.10169 7.70928L8.73068 8.33938C8.59014 8.47968 8.40382 8.54283 8.22034 8.53313L8.26736 7.64406ZM8.10141 7.70956C8.05917 7.7518 8.03569 7.80969 8.03569 7.86772H8.926C8.926 8.04453 8.85658 8.21348 8.73096 8.3391L8.10141 7.70956ZM8.03569 7.86772V6.17122H8.926V7.86772H8.03569ZM8.03569 6.17122C8.03569 5.85599 8.29123 5.60045 8.60646 5.60045V6.49076C8.78294 6.49076 8.926 6.3477 8.926 6.17122H8.03569ZM8.60646 5.60045C8.92151 5.60045 9.17723 5.85574 9.17723 6.17122H8.28692C8.28692 6.3478 8.43016 6.49076 8.60646 6.49076V5.60045ZM9.17723 6.17124L9.17715 8.25335L8.28684 8.25332L8.28692 6.1712L9.17723 6.17124ZM9.17715 8.25334C9.17715 8.12956 9.07719 8.0296 8.95342 8.0296V8.91991C8.58549 8.91991 8.28684 8.62127 8.28684 8.25334H9.17715ZM8.95342 8.0296C8.89548 8.0296 8.83788 8.05295 8.79572 8.09503L9.42466 8.72518C9.29896 8.85063 9.12997 8.91991 8.95342 8.91991V8.0296ZM8.79512 8.09563C8.75303 8.13779 8.72969 8.1954 8.72969 8.25334H9.62C9.62 8.42989 9.55072 8.59888 9.42526 8.72458L8.79512 8.09563ZM8.72969 8.25334V6.17122H9.62V8.25334H8.72969ZM8.72969 6.17122C8.72969 5.85618 8.98497 5.60045 9.30046 5.60045V6.49076C9.47704 6.49076 9.62 6.34751 9.62 6.17122H8.72969ZM9.30046 5.60045C9.61551 5.60045 9.87123 5.85573 9.87123 6.17122H8.98092C8.98092 6.3478 9.12417 6.49076 9.30046 6.49076V5.60045ZM9.87123 6.17124L9.87116 7.84823L8.98084 7.84819L8.98092 6.1712L9.87123 6.17124ZM9.87116 7.84821V7.86772H8.98084V7.84821H9.87116ZM9.87116 7.86772C9.87116 7.74365 9.77098 7.6439 9.6475 7.6439V8.53421C9.27971 8.53421 8.98084 8.23579 8.98084 7.86772H9.87116ZM9.6475 7.6439C9.58835 7.6439 9.53108 7.66796 9.49009 7.7088L10.1185 8.33952C9.99344 8.46406 9.82511 8.53421 9.6475 8.53421V7.6439ZM9.48979 7.70909C9.44721 7.7516 9.42377 7.80967 9.42377 7.86763H10.3141C10.3141 8.04437 10.2447 8.21351 10.1187 8.33923L9.48979 7.70909ZM9.42377 7.86763V6.17113H10.3141V7.86763H9.42377ZM9.42377 6.17113C9.42377 5.85608 9.67906 5.60036 9.99454 5.60036V6.49067C10.1711 6.49067 10.3141 6.34743 10.3141 6.17113H9.42377ZM9.99454 5.60036C10.3096 5.60036 10.5653 5.85564 10.5653 6.17113H9.675C9.675 6.34771 9.81825 6.49067 9.99454 6.49067V5.60036ZM10.5653 6.17119L10.5652 7.45175L9.67485 7.45164L9.675 6.17108L10.5653 6.17119ZM10.5652 7.45169C10.5652 7.32821 10.4654 7.22804 10.3413 7.22804V8.11835C9.97329 8.11835 9.67485 7.81949 9.67485 7.45169H10.5652ZM10.3413 7.22804C10.2829 7.22804 10.2253 7.25168 10.1835 7.29347L10.8124 7.92361C10.6872 8.04862 10.5185 8.11835 10.3413 8.11835V7.22804ZM10.1832 7.29377C10.1408 7.33616 10.1175 7.39401 10.1175 7.45169H11.0078C11.0078 7.628 10.9388 7.79723 10.8127 7.92331L10.1832 7.29377ZM10.1175 7.45168L10.1176 4.85608L11.0079 4.85611L11.0078 7.45171L10.1175 7.45168ZM10.1176 4.8561C10.1176 4.19575 9.63747 3.73123 9.1344 3.73123V2.84092C10.2066 2.84092 11.0079 3.78519 11.0079 4.8561H10.1176ZM8.70637 3.16378L8.70638 3.16375L9.56244 3.40834L9.56243 3.40837L8.70637 3.16378Z" fill="#4CAF4F" mask="url(#path-1-inside-1_212_1413)"/>
<path d="M4.88232 8.78235L4.85693 8.76868C4.8509 8.77954 4.83486 8.80876 4.81104 8.85168C4.81994 8.85615 4.8284 8.86099 4.8374 8.86438C4.85225 8.83763 4.86691 8.81012 4.88232 8.78235Z" fill="#4CAF4F" stroke="#4CAF4F" stroke-width="0.445155"/>
<mask id="path-4-inside-2_212_1413" fill="white">
<path d="M14.1161 12.2689C13.8843 12.6555 13.503 12.9201 13.0425 13.0142C12.586 13.1072 12.106 13.0214 11.6905 12.7723L9.46462 11.437C9.35631 11.3721 9.27969 11.2689 9.24902 11.1463C9.21858 11.024 9.23761 10.8969 9.3025 10.7887C9.34301 10.7211 9.3998 10.6677 9.46564 10.6283L9.46501 10.6279C9.3567 10.563 9.28009 10.4598 9.24957 10.3374C9.2189 10.215 9.23793 10.0879 9.3029 9.97948C9.34475 9.90986 9.40209 9.85543 9.46753 9.81681C9.37251 9.75145 9.30408 9.65651 9.27592 9.54386C9.24525 9.42139 9.26428 9.29435 9.32925 9.18612C9.39415 9.0778 9.49742 9.00127 9.61982 8.97067C9.65805 8.96108 9.69683 8.95636 9.73521 8.95636C9.81057 8.95644 9.88451 8.97555 9.95247 9.01111C9.95664 8.92309 9.98283 8.83664 10.0343 8.76246C10.1753 8.55898 10.4578 8.50266 10.6779 8.63472L12.5007 9.72807L12.2657 9.30488C12.1756 9.14332 12.1789 8.94399 12.2745 8.78463C12.321 8.70708 12.3876 8.64266 12.4671 8.59806C12.5325 8.56187 12.6033 8.54473 12.6731 8.54473C12.8231 8.54481 12.9688 8.62394 13.0463 8.76404C13.3166 9.25102 13.8266 10.1694 13.8625 10.2335C13.8701 10.2446 13.8932 10.2777 13.9129 10.3057C13.9317 10.3324 13.952 10.3579 13.973 10.3832C14.4281 10.9349 14.483 11.6574 14.1161 12.2689L14.1161 12.2689ZM13.7792 10.5433C13.7542 10.513 13.7297 10.4821 13.7073 10.4503C13.6394 10.3538 13.6376 10.3513 13.6325 10.3261C13.5531 10.1946 13.3593 9.84569 12.8265 8.88589C12.7798 8.80164 12.6736 8.77089 12.589 8.81761C12.5474 8.84089 12.514 8.87338 12.4896 8.91405C12.4402 8.9964 12.4383 9.09929 12.485 9.18283L12.9473 10.0159C12.9749 10.0656 12.9657 10.1276 12.9249 10.1671C12.8842 10.2066 12.8219 10.2136 12.7729 10.1845L10.5487 8.8501C10.4438 8.78725 10.3056 8.81187 10.2408 8.90547C10.2035 8.95927 10.1916 9.02346 10.2072 9.08615C10.2215 9.14341 10.2575 9.19171 10.3084 9.22223C10.3085 9.22231 10.3086 9.22246 10.3088 9.22254L11.7631 10.095C11.8225 10.1307 11.8418 10.2078 11.8061 10.2674C11.7704 10.3267 11.6934 10.3462 11.6338 10.3104L9.84829 9.2393C9.79764 9.20894 9.73802 9.19997 9.68075 9.21437C9.62333 9.22868 9.57504 9.26455 9.5446 9.31544C9.51408 9.36618 9.50527 9.42572 9.51943 9.48298C9.53374 9.54025 9.56969 9.58862 9.6205 9.61914L9.96794 9.82751L11.4059 10.6902C11.4653 10.726 11.4846 10.803 11.4489 10.8626C11.4132 10.922 11.3362 10.9413 11.2766 10.9056L9.82195 10.0329C9.71733 9.96997 9.5811 10.0041 9.51817 10.1089C9.48765 10.1597 9.47884 10.2192 9.493 10.2765C9.50731 10.3338 9.54326 10.3821 9.59415 10.4127L9.95079 10.6266L11.0488 11.2854C11.1082 11.3211 11.1275 11.3982 11.0918 11.4577C11.0561 11.5171 10.9791 11.5366 10.9195 11.5007L9.82148 10.842C9.77082 10.8116 9.71143 10.8026 9.65385 10.817C9.59659 10.8314 9.54814 10.8672 9.5177 10.918C9.48726 10.9688 9.47837 11.0284 9.49253 11.0856C9.50684 11.1428 9.54279 11.1911 9.59368 11.2217L11.8196 12.557C12.1808 12.7737 12.5973 12.8488 12.9921 12.7682C13.3827 12.6885 13.7053 12.4653 13.9006 12.1398C14.2161 11.6142 14.1707 11.0174 13.7793 10.5433L13.7792 10.5433Z"/>
</mask>
<path d="M14.1161 12.2689C13.8843 12.6555 13.503 12.9201 13.0425 13.0142C12.586 13.1072 12.106 13.0214 11.6905 12.7723L9.46462 11.437C9.35631 11.3721 9.27969 11.2689 9.24902 11.1463C9.21858 11.024 9.23761 10.8969 9.3025 10.7887C9.34301 10.7211 9.3998 10.6677 9.46564 10.6283L9.46501 10.6279C9.3567 10.563 9.28009 10.4598 9.24957 10.3374C9.2189 10.215 9.23793 10.0879 9.3029 9.97948C9.34475 9.90986 9.40209 9.85543 9.46753 9.81681C9.37251 9.75145 9.30408 9.65651 9.27592 9.54386C9.24525 9.42139 9.26428 9.29435 9.32925 9.18612C9.39415 9.0778 9.49742 9.00127 9.61982 8.97067C9.65805 8.96108 9.69683 8.95636 9.73521 8.95636C9.81057 8.95644 9.88451 8.97555 9.95247 9.01111C9.95664 8.92309 9.98283 8.83664 10.0343 8.76246C10.1753 8.55898 10.4578 8.50266 10.6779 8.63472L12.5007 9.72807L12.2657 9.30488C12.1756 9.14332 12.1789 8.94399 12.2745 8.78463C12.321 8.70708 12.3876 8.64266 12.4671 8.59806C12.5325 8.56187 12.6033 8.54473 12.6731 8.54473C12.8231 8.54481 12.9688 8.62394 13.0463 8.76404C13.3166 9.25102 13.8266 10.1694 13.8625 10.2335C13.8701 10.2446 13.8932 10.2777 13.9129 10.3057C13.9317 10.3324 13.952 10.3579 13.973 10.3832C14.4281 10.9349 14.483 11.6574 14.1161 12.2689L14.1161 12.2689ZM13.7792 10.5433C13.7542 10.513 13.7297 10.4821 13.7073 10.4503C13.6394 10.3538 13.6376 10.3513 13.6325 10.3261C13.5531 10.1946 13.3593 9.84569 12.8265 8.88589C12.7798 8.80164 12.6736 8.77089 12.589 8.81761C12.5474 8.84089 12.514 8.87338 12.4896 8.91405C12.4402 8.9964 12.4383 9.09929 12.485 9.18283L12.9473 10.0159C12.9749 10.0656 12.9657 10.1276 12.9249 10.1671C12.8842 10.2066 12.8219 10.2136 12.7729 10.1845L10.5487 8.8501C10.4438 8.78725 10.3056 8.81187 10.2408 8.90547C10.2035 8.95927 10.1916 9.02346 10.2072 9.08615C10.2215 9.14341 10.2575 9.19171 10.3084 9.22223C10.3085 9.22231 10.3086 9.22246 10.3088 9.22254L11.7631 10.095C11.8225 10.1307 11.8418 10.2078 11.8061 10.2674C11.7704 10.3267 11.6934 10.3462 11.6338 10.3104L9.84829 9.2393C9.79764 9.20894 9.73802 9.19997 9.68075 9.21437C9.62333 9.22868 9.57504 9.26455 9.5446 9.31544C9.51408 9.36618 9.50527 9.42572 9.51943 9.48298C9.53374 9.54025 9.56969 9.58862 9.6205 9.61914L9.96794 9.82751L11.4059 10.6902C11.4653 10.726 11.4846 10.803 11.4489 10.8626C11.4132 10.922 11.3362 10.9413 11.2766 10.9056L9.82195 10.0329C9.71733 9.96997 9.5811 10.0041 9.51817 10.1089C9.48765 10.1597 9.47884 10.2192 9.493 10.2765C9.50731 10.3338 9.54326 10.3821 9.59415 10.4127L9.95079 10.6266L11.0488 11.2854C11.1082 11.3211 11.1275 11.3982 11.0918 11.4577C11.0561 11.5171 10.9791 11.5366 10.9195 11.5007L9.82148 10.842C9.77082 10.8116 9.71143 10.8026 9.65385 10.817C9.59659 10.8314 9.54814 10.8672 9.5177 10.918C9.48726 10.9688 9.47837 11.0284 9.49253 11.0856C9.50684 11.1428 9.54279 11.1911 9.59368 11.2217L11.8196 12.557C12.1808 12.7737 12.5973 12.8488 12.9921 12.7682C13.3827 12.6885 13.7053 12.4653 13.9006 12.1398C14.2161 11.6142 14.1707 11.0174 13.7793 10.5433L13.7792 10.5433Z" fill="#4CAF4F"/>
<path d="M14.1161 12.2689L13.9725 11.8476L15.123 11.4553L14.4979 12.4978L14.1161 12.2689ZM13.0425 13.0142L13.1316 13.4503L13.1314 13.4504L13.0425 13.0142ZM11.6905 12.7723L11.4616 13.1541L11.4615 13.1541L11.6905 12.7723ZM9.46462 11.437L9.69361 11.0553L9.69362 11.0553L9.46462 11.437ZM9.24902 11.1463L8.81718 11.2544L8.81704 11.2538L9.24902 11.1463ZM9.3025 10.7887L9.68442 11.0174L9.6843 11.0176L9.3025 10.7887ZM9.46564 10.6283L9.70157 10.2508L10.3187 10.6365L9.69426 11.0103L9.46564 10.6283ZM9.46501 10.6279L9.69404 10.2461L9.70094 10.2504L9.46501 10.6279ZM9.24957 10.3374L9.68137 10.2291L9.68151 10.2297L9.24957 10.3374ZM9.3029 9.97948L8.9211 9.75059L8.92137 9.75013L9.3029 9.97948ZM9.46753 9.81681L9.71983 9.45005L10.2947 9.84554L9.69377 10.2002L9.46753 9.81681ZM9.27592 9.54386L9.70774 9.4357L9.70779 9.4359L9.27592 9.54386ZM9.32925 9.18612L9.71112 9.4149L9.71092 9.41523L9.32925 9.18612ZM9.61982 8.97067L9.72821 9.40243L9.72777 9.40254L9.61982 8.97067ZM9.73521 8.95636V8.5112L9.73568 8.5112L9.73521 8.95636ZM9.95247 9.01111L10.3971 9.03217L10.3641 9.72888L9.74611 9.40554L9.95247 9.01111ZM10.0343 8.76246L10.4001 9.01605L10.4001 9.01614L10.0343 8.76246ZM10.6779 8.63472L10.449 9.01646L10.4489 9.01643L10.6779 8.63472ZM12.5007 9.72807L12.8899 9.51199L13.6962 10.9643L12.2717 10.1098L12.5007 9.72807ZM12.2657 9.30488L12.6545 9.08799L12.6549 9.0888L12.2657 9.30488ZM12.2745 8.78463L11.8927 8.55569L11.8928 8.55549L12.2745 8.78463ZM12.4671 8.59806L12.2494 8.20979L12.2515 8.20859L12.4671 8.59806ZM12.6731 8.54473V8.09957L12.6733 8.09957L12.6731 8.54473ZM13.0463 8.76404L12.6571 8.98006L12.6569 8.97961L13.0463 8.76404ZM13.8625 10.2335L13.4957 10.4858L13.484 10.4689L13.474 10.4509L13.8625 10.2335ZM13.9129 10.3057L13.5491 10.5622L13.5488 10.5618L13.9129 10.3057ZM13.973 10.3832L14.3157 10.0991L14.3164 10.0999L13.973 10.3832ZM14.1161 12.2689L14.2597 12.6903L13.1086 13.0827L13.7344 12.0399L14.1161 12.2689ZM13.7792 10.5433L13.8233 10.9863L13.5871 11.0098L13.436 10.8268L13.7792 10.5433ZM13.7073 10.4503L14.0712 10.1938L14.0718 10.1947L13.7073 10.4503ZM13.6325 10.3261L14.0135 10.0958L14.0535 10.1619L14.0688 10.2377L13.6325 10.3261ZM12.8265 8.88589L12.4373 9.10193L12.4372 9.10179L12.8265 8.88589ZM12.589 8.81761L12.3717 8.42913L12.3737 8.42798L12.589 8.81761ZM12.4896 8.91405L12.8714 9.14296L12.8714 9.14302L12.4896 8.91405ZM12.485 9.18283L12.8737 8.96582L12.8742 8.96681L12.485 9.18283ZM12.9473 10.0159L12.5582 10.232L12.5581 10.2319L12.9473 10.0159ZM12.9249 10.1671L12.6148 9.84771L12.6154 9.84711L12.9249 10.1671ZM12.7729 10.1845L12.5454 10.567L12.5439 10.5662L12.7729 10.1845ZM10.5487 8.8501L10.7775 8.46828L10.7777 8.46836L10.5487 8.8501ZM10.2408 8.90547L10.6068 9.1589L10.6067 9.15903L10.2408 8.90547ZM10.2072 9.08615L9.77534 9.19411L9.77518 9.19347L10.2072 9.08615ZM10.3084 9.22223L10.1092 9.62037L10.094 9.61275L10.0794 9.604L10.3084 9.22223ZM10.3088 9.22254L10.5079 8.8244L10.5231 8.83204L10.5378 8.84081L10.3088 9.22254ZM11.7631 10.095L11.9921 9.71329L11.9923 9.71339L11.7631 10.095ZM11.8061 10.2674L12.1879 10.4963L12.1876 10.4968L11.8061 10.2674ZM11.6338 10.3104L11.8628 9.92865L11.8629 9.92872L11.6338 10.3104ZM9.84829 9.2393L10.0772 8.85748L10.0773 8.85757L9.84829 9.2393ZM9.68075 9.21437L9.78927 9.64609L9.78844 9.6463L9.68075 9.21437ZM9.5446 9.31544L9.92663 9.54395L9.92605 9.54491L9.5446 9.31544ZM9.51943 9.48298L9.08756 9.59095L9.08728 9.58983L9.51943 9.48298ZM9.6205 9.61914L9.39154 10.0009L9.3913 10.0008L9.6205 9.61914ZM9.96794 9.82751L10.1969 9.44575L10.197 9.44579L9.96794 9.82751ZM11.4059 10.6902L11.6349 10.3085L11.6351 10.3086L11.4059 10.6902ZM11.4489 10.8626L11.8307 11.0915L11.8304 11.092L11.4489 10.8626ZM11.2766 10.9056L11.0478 11.2875L11.0476 11.2873L11.2766 10.9056ZM9.82195 10.0329L9.59293 10.4146L9.5925 10.4144L9.82195 10.0329ZM9.51817 10.1089L9.89979 10.3381L9.89978 10.3381L9.51817 10.1089ZM9.493 10.2765L9.06113 10.3845L9.06086 10.3833L9.493 10.2765ZM9.59415 10.4127L9.36515 10.7944L9.36478 10.7942L9.59415 10.4127ZM9.95079 10.6266L10.1798 10.2449L10.1798 10.2449L9.95079 10.6266ZM11.0488 11.2854L11.2778 10.9036L11.278 10.9037L11.0488 11.2854ZM11.0918 11.4577L11.4736 11.6867L11.4733 11.6871L11.0918 11.4577ZM10.9195 11.5007L11.1485 11.119L11.1489 11.1193L10.9195 11.5007ZM9.82148 10.842L10.0503 10.4601L10.0505 10.4602L9.82148 10.842ZM9.65385 10.817L9.54589 10.3852L9.5459 10.3852L9.65385 10.817ZM9.5177 10.918L9.13582 10.6892L9.13598 10.6889L9.5177 10.918ZM9.49253 11.0856L9.06066 11.1935L9.06042 11.1926L9.49253 11.0856ZM9.59368 11.2217L9.36468 11.6035L9.3643 11.6032L9.59368 11.2217ZM11.8196 12.557L12.0486 12.1753L12.0486 12.1753L11.8196 12.557ZM12.9921 12.7682L13.0811 13.2044L13.0811 13.2044L12.9921 12.7682ZM13.9006 12.1398L13.5188 11.9108L13.5189 11.9107L13.9006 12.1398ZM13.7793 10.5433L13.7352 10.1003L13.9715 10.0768L14.1227 10.2599L13.7793 10.5433ZM14.4979 12.4978C14.1988 12.9966 13.7085 13.3325 13.1316 13.4503L12.9534 12.578C13.2976 12.5077 13.5698 12.3144 13.7343 12.04L14.4979 12.4978ZM13.1314 13.4504C12.5613 13.5666 11.9684 13.458 11.4616 13.1541L11.9194 12.3905C12.2436 12.5849 12.6108 12.6479 12.9536 12.578L13.1314 13.4504ZM11.4615 13.1541L9.23562 11.8188L9.69362 11.0553L11.9195 12.3906L11.4615 13.1541ZM9.23563 11.8188C9.02629 11.6932 8.87657 11.4917 8.81718 11.2544L9.68085 11.0382C9.68206 11.043 9.68374 11.046 9.68523 11.048C9.68673 11.0501 9.68918 11.0526 9.69361 11.0553L9.23563 11.8188ZM8.81704 11.2538C8.75807 11.0168 8.79537 10.7689 8.92071 10.5598L9.6843 11.0176C9.68163 11.0221 9.68065 11.0255 9.68026 11.0281C9.67988 11.0307 9.67983 11.0341 9.681 11.0388L8.81704 11.2538ZM8.92059 10.56C9.00313 10.4222 9.11592 10.3188 9.23702 10.2464L9.69426 11.0103C9.68884 11.0135 9.68596 11.0161 9.6848 11.0172C9.68376 11.0182 9.68391 11.0183 9.68442 11.0174L8.92059 10.56ZM9.22971 11.0058L9.22908 11.0054L9.70094 10.2504L9.70157 10.2508L9.22971 11.0058ZM9.23602 11.0097C9.02678 10.8842 8.87686 10.6826 8.81764 10.445L9.68151 10.2297C9.68263 10.2342 9.68421 10.237 9.68566 10.239C9.68712 10.241 9.68956 10.2435 9.694 10.2462L9.23602 11.0097ZM8.81777 10.4456C8.75825 10.2081 8.79569 9.95977 8.9211 9.75059L9.6847 10.2084C9.68198 10.2129 9.68102 10.2164 9.68065 10.2189C9.68029 10.2213 9.68023 10.2246 9.68137 10.2291L8.81777 10.4456ZM8.92137 9.75013C9.00356 9.61341 9.11585 9.50746 9.24129 9.43343L9.69377 10.2002C9.69088 10.2019 9.68892 10.2035 9.68762 10.2048C9.6864 10.206 9.68539 10.2072 9.68443 10.2088L8.92137 9.75013ZM9.21524 10.1836C9.03543 10.0599 8.89986 9.87504 8.84406 9.65182L9.70779 9.4359C9.70831 9.438 9.70902 9.43949 9.71017 9.44112C9.71142 9.44289 9.71421 9.44619 9.71983 9.45005L9.21524 10.1836ZM8.84411 9.65202C8.78463 9.41457 8.82199 9.16623 8.94758 8.95701L9.71092 9.41523C9.70828 9.41963 9.70735 9.42298 9.707 9.42537C9.70664 9.42774 9.70657 9.43104 9.70774 9.4357L8.84411 9.65202ZM8.94739 8.95733C9.07303 8.74763 9.27486 8.59805 9.51188 8.53881L9.72777 9.40254C9.72302 9.40373 9.72006 9.40539 9.71808 9.40686C9.71611 9.40832 9.71365 9.41068 9.71112 9.4149L8.94739 8.95733ZM9.51144 8.53892C9.58518 8.5204 9.66036 8.5112 9.73521 8.5112V9.40151C9.73329 9.40151 9.73092 9.40175 9.72821 9.40243L9.51144 8.53892ZM9.73568 8.5112C9.8869 8.51136 10.0311 8.54985 10.1588 8.61667L9.74611 9.40554C9.74187 9.40333 9.73885 9.40235 9.73717 9.40192C9.73554 9.40151 9.7348 9.40151 9.73475 9.40151L9.73568 8.5112ZM9.50781 8.99005C9.51548 8.82815 9.56429 8.65901 9.66847 8.50878L10.4001 9.01614C10.4014 9.01427 10.3978 9.01802 10.3971 9.03217L9.50781 8.99005ZM9.66841 8.50887C9.95036 8.10207 10.497 8.00702 10.907 8.253L10.4489 9.01643C10.4359 9.00865 10.4232 9.0074 10.4132 9.00938C10.4035 9.01132 10.4008 9.01509 10.4001 9.01605L9.66841 8.50887ZM10.9069 8.25297L12.7297 9.34633L12.2717 10.1098L10.449 9.01646L10.9069 8.25297ZM12.1115 9.94415L11.8765 9.52096L12.6549 9.0888L12.8899 9.51199L12.1115 9.94415ZM11.877 9.52178C11.7089 9.22041 11.7156 8.85106 11.8927 8.55569L12.6562 9.01358C12.6422 9.03693 12.6423 9.06622 12.6545 9.08799L11.877 9.52178ZM11.8928 8.55549C11.9796 8.41089 12.1029 8.2919 12.2494 8.20979L12.6849 8.98632C12.6722 8.99341 12.6624 9.00326 12.6561 9.01378L11.8928 8.55549ZM12.2515 8.20859C12.3847 8.13486 12.53 8.09957 12.6731 8.09957V8.98988C12.6765 8.98988 12.6802 8.98889 12.6827 8.98752L12.2515 8.20859ZM12.6733 8.09957C12.9775 8.09973 13.2763 8.26022 13.4358 8.54846L12.6569 8.97961C12.6586 8.9828 12.6618 8.98593 12.665 8.98776C12.6675 8.98921 12.67 8.98988 12.6729 8.98988L12.6733 8.09957ZM13.4356 8.54802C13.7062 9.03558 14.2156 9.95296 14.251 10.0162L13.474 10.4509C13.4376 10.3859 12.9271 9.46646 12.6571 8.98005L13.4356 8.54802ZM14.2292 9.98123C14.2355 9.99037 14.2575 10.0219 14.2771 10.0497L13.5488 10.5618C13.5288 10.5334 13.5047 10.4989 13.4957 10.4858L14.2292 9.98123ZM14.2767 10.0492C14.2859 10.0623 14.2979 10.0777 14.3157 10.0991L13.6303 10.6674C13.606 10.6381 13.5775 10.6025 13.5491 10.5622L14.2767 10.0492ZM14.3164 10.0999C14.891 10.7965 14.9621 11.7241 14.4978 12.498L13.7344 12.0399C14.0039 11.5907 13.9653 11.0734 13.6296 10.6665L14.3164 10.0999ZM13.9724 11.8476L13.9725 11.8476L14.2597 12.6902L14.2597 12.6903L13.9724 11.8476ZM13.436 10.8268C13.4079 10.7927 13.3749 10.7516 13.3428 10.7058L14.0718 10.1947C14.0844 10.2126 14.1005 10.2333 14.1224 10.2598L13.436 10.8268ZM13.3434 10.7067C13.3154 10.6669 13.2853 10.6247 13.2653 10.5916C13.2519 10.5695 13.234 10.5371 13.2189 10.4959C13.2042 10.4558 13.1976 10.4215 13.1962 10.4144L14.0688 10.2377C14.0699 10.2432 14.0655 10.2187 14.0547 10.1891C14.0435 10.1586 14.0312 10.1376 14.0274 10.1313C14.0256 10.1283 14.0249 10.1273 14.0263 10.1295C14.0276 10.1315 14.03 10.135 14.034 10.1408C14.0423 10.1528 14.0537 10.169 14.0712 10.1938L13.3434 10.7067ZM13.2515 10.5563C13.1665 10.4156 12.9663 10.055 12.4373 9.10193L13.2157 8.66985C13.7522 9.63637 13.9396 9.97361 14.0135 10.0958L13.2515 10.5563ZM12.4372 9.10179C12.5093 9.23176 12.6734 9.2796 12.8043 9.20724L12.3737 8.42798C12.6738 8.26218 13.0503 8.37153 13.2158 8.66998L12.4372 9.10179ZM12.8064 9.20609C12.8326 9.19145 12.8558 9.16893 12.8714 9.14296L12.1078 8.68514C12.1722 8.57783 12.2623 8.49034 12.3717 8.42913L12.8064 9.20609ZM12.8714 9.14302C12.9032 9.08988 12.9054 9.02267 12.8736 8.96582L12.0963 9.39984C11.9713 9.1759 11.9772 8.90292 12.1079 8.68507L12.8714 9.14302ZM12.8742 8.96681L13.3366 9.79988L12.5581 10.2319L12.0957 9.39885L12.8742 8.96681ZM13.3365 9.79977C13.4618 10.0254 13.4202 10.3073 13.2344 10.4871L12.6154 9.84711C12.5113 9.94784 12.488 10.1058 12.5582 10.232L13.3365 9.79977ZM13.235 10.4864C13.0477 10.6683 12.7646 10.6974 12.5454 10.567L13.0005 9.80188C12.8792 9.72968 12.7206 9.74499 12.6148 9.84772L13.235 10.4864ZM12.5439 10.5662L10.3197 9.23183L10.7777 8.46836L13.0019 9.80273L12.5439 10.5662ZM10.3198 9.23191C10.3632 9.25794 10.4123 9.26553 10.4583 9.25728C10.5043 9.24903 10.5637 9.22114 10.6068 9.1589L9.87482 8.65204C10.0891 8.34261 10.4965 8.29982 10.7775 8.46828L10.3198 9.23191ZM10.6067 9.15903C10.6414 9.10888 10.6549 9.04181 10.6392 8.97883L9.77518 9.19347C9.72839 9.00511 9.76559 8.80966 9.87491 8.65192L10.6067 9.15903ZM10.6391 8.97819C10.6245 8.91988 10.5868 8.87015 10.5373 8.84046L10.0794 9.604C9.92813 9.51327 9.81855 9.36695 9.77534 9.19411L10.6391 8.97819ZM10.5075 8.82409C10.5477 8.8442 10.5773 8.86663 10.596 8.88247C10.6052 8.89026 10.6123 8.89694 10.6166 8.90107C10.6188 8.90317 10.6206 8.90489 10.6216 8.90594C10.6222 8.90648 10.6226 8.90691 10.6229 8.90718C10.623 8.90731 10.6231 8.90742 10.6232 8.90749C10.6232 8.90752 10.6233 8.90755 10.6233 8.90757C10.6233 8.90758 10.6233 8.90758 10.6233 8.90759C10.6233 8.90759 10.6233 8.90759 10.6233 8.90759C10.6233 8.9076 10.6233 8.9076 10.6233 8.9076C10.6239 8.90816 10.6206 8.90488 10.6167 8.90116C10.6125 8.89706 10.6054 8.89041 10.5962 8.88264C10.5775 8.86685 10.548 8.84448 10.5079 8.8244L10.1096 9.62068C10.0694 9.60057 10.0398 9.57814 10.0211 9.5623C10.0119 9.55451 10.0048 9.54783 10.0005 9.5437C9.99828 9.5416 9.99653 9.53988 9.99547 9.53883C9.99493 9.5383 9.99449 9.53786 9.99422 9.5376C9.99409 9.53746 9.99398 9.53735 9.99391 9.53728C9.99388 9.53725 9.99385 9.53722 9.99383 9.5372C9.99382 9.53719 9.99381 9.53719 9.99381 9.53718C9.99381 9.53718 9.99381 9.53718 9.9938 9.53718C9.9938 9.53718 9.9938 9.53718 9.9938 9.53717C9.99324 9.53661 9.99649 9.53989 10.0004 9.54362C10.0046 9.54771 10.0117 9.55436 10.0209 9.56213C10.0396 9.57792 10.0691 9.60029 10.1092 9.62037L10.5075 8.82409ZM10.5378 8.84081L11.9921 9.71329L11.5341 10.4767L10.0797 9.60427L10.5378 8.84081ZM11.9923 9.71339C12.2625 9.87567 12.3499 10.2261 12.1879 10.4963L11.4243 10.0384C11.3337 10.1895 11.3826 10.3858 11.5339 10.4766L11.9923 9.71339ZM12.1876 10.4968C12.0257 10.766 11.6757 10.8548 11.4046 10.6921L11.8629 9.92872C11.7111 9.83759 11.5151 9.88751 11.4246 10.038L12.1876 10.4968ZM11.4048 10.6921L9.6193 9.62104L10.0773 8.85757L11.8628 9.92865L11.4048 10.6921ZM9.61944 9.62112C9.66944 9.6511 9.73111 9.66071 9.78927 9.64609L9.57223 8.78264C9.74492 8.73923 9.92583 8.76678 10.0772 8.85748L9.61944 9.62112ZM9.78844 9.6463C9.84625 9.63189 9.8965 9.59432 9.92663 9.54395L9.16257 9.08693C9.25357 8.93479 9.40041 8.82548 9.57307 8.78243L9.78844 9.6463ZM9.92605 9.54491C9.95662 9.49409 9.96553 9.43261 9.95157 9.37614L9.08728 9.58983C9.045 9.41883 9.07153 9.23827 9.16314 9.08598L9.92605 9.54491ZM9.95129 9.37502C9.93679 9.31703 9.89935 9.26734 9.8497 9.23753L9.3913 10.0008C9.24003 9.9099 9.13069 9.76347 9.08756 9.59095L9.95129 9.37502ZM9.84946 9.23738L10.1969 9.44575L9.73898 10.2093L9.39154 10.0009L9.84946 9.23738ZM10.197 9.44579L11.6349 10.3085L11.1769 11.072L9.73891 10.2092L10.197 9.44579ZM11.6351 10.3086C11.9053 10.4709 11.9927 10.8213 11.8307 11.0915L11.0672 10.6336C10.9765 10.7847 11.0254 10.981 11.1767 11.0719L11.6351 10.3086ZM11.8304 11.092C11.6683 11.3616 11.3183 11.4495 11.0478 11.2875L11.5053 10.5237C11.3541 10.4331 11.1581 10.4823 11.0674 10.6332L11.8304 11.092ZM11.0476 11.2873L9.59293 10.4146L10.051 9.65117L11.5056 10.5239L11.0476 11.2873ZM9.5925 10.4144C9.69939 10.4787 9.83651 10.4434 9.89979 10.3381L9.13655 9.87968C9.32568 9.56478 9.73527 9.46128 10.0514 9.65143L9.5925 10.4144ZM9.89978 10.3381C9.93013 10.2875 9.93912 10.2262 9.92514 10.1696L9.06086 10.3833C9.01856 10.2123 9.04517 10.0318 9.13656 9.87967L9.89978 10.3381ZM9.92486 10.1685C9.91027 10.1102 9.87262 10.0607 9.82353 10.0311L9.36478 10.7942C9.21391 10.7035 9.10436 10.5574 9.06113 10.3845L9.92486 10.1685ZM9.82316 10.0309L10.1798 10.2449L9.72179 11.0083L9.36515 10.7944L9.82316 10.0309ZM10.1798 10.2449L11.2778 10.9036L10.8197 11.6671L9.72177 11.0083L10.1798 10.2449ZM11.278 10.9037C11.5482 11.066 11.6356 11.4165 11.4736 11.6867L10.71 11.2287C10.6194 11.3799 10.6683 11.5761 10.8196 11.667L11.278 10.9037ZM11.4733 11.6871C11.3117 11.9559 10.9616 12.0456 10.69 11.8822L11.1489 11.1193C10.9966 11.0276 10.8005 11.0783 10.7103 11.2283L11.4733 11.6871ZM10.6904 11.8825L9.59245 11.2237L10.0505 10.4602L11.1485 11.119L10.6904 11.8825ZM9.59262 11.2238C9.64275 11.2538 9.70446 11.2632 9.76181 11.2489L9.5459 10.3852C9.71841 10.342 9.89889 10.3694 10.0503 10.4601L9.59262 11.2238ZM9.76182 11.2489C9.8191 11.2346 9.86912 11.1975 9.89942 11.147L9.13598 10.6889C9.22716 10.537 9.37408 10.4281 9.54589 10.3852L9.76182 11.2489ZM9.89957 11.1467C9.92949 11.0968 9.93878 11.0357 9.92464 10.9786L9.06042 11.1926C9.01796 11.0211 9.04503 10.8407 9.13582 10.6892L9.89957 11.1467ZM9.92439 10.9776C9.9098 10.9192 9.87214 10.8697 9.82306 10.8402L9.3643 11.6032C9.21344 11.5125 9.10388 11.3664 9.06066 11.1935L9.92439 10.9776ZM9.82268 10.84L12.0486 12.1753L11.5906 12.9388L9.36468 11.6035L9.82268 10.84ZM12.0486 12.1753C12.3191 12.3376 12.6228 12.3892 12.9031 12.332L13.0811 13.2044C12.5719 13.3083 12.0424 13.2099 11.5906 12.9387L12.0486 12.1753ZM12.903 12.3321C13.1783 12.2758 13.3914 12.1233 13.5188 11.9108L14.2823 12.3688C14.0193 12.8073 13.587 13.1011 13.0811 13.2044L12.903 12.3321ZM13.5189 11.9107C13.7369 11.5475 13.7078 11.1559 13.436 10.8267L14.1227 10.2599C14.6335 10.8788 14.6952 11.6809 14.2822 12.3689L13.5189 11.9107ZM13.8234 10.9863L13.8233 10.9863L13.7351 10.1003L13.7352 10.1003L13.8234 10.9863Z" fill="#4CAF4F" mask="url(#path-4-inside-2_212_1413)"/>
</svg>
