<svg width="17" height="17" viewBox="0 0 17 17" fill="none" xmlns="http://www.w3.org/2000/svg">
<g clip-path="url(#clip0_212_1407)">
<path d="M11.347 2.95178H11.348C12.136 2.94949 12.9058 3.18955 13.5521 3.64026C14.1984 4.09097 14.6902 4.7302 14.9603 5.47034C15.2305 6.21059 15.266 7.01685 15.0619 7.77795C14.8578 8.53892 14.4239 9.21854 13.8197 9.72424L13.6156 9.89514L13.8578 10.0045C14.8504 10.4537 15.7045 11.1604 16.3314 12.0514L16.3324 12.0524C16.3769 12.1147 16.4091 12.1857 16.4261 12.2604C16.4431 12.335 16.4451 12.4125 16.432 12.4879C16.4189 12.5632 16.3911 12.6354 16.35 12.6998C16.3088 12.7644 16.2547 12.8202 16.1918 12.8639L16.1898 12.8649C16.0924 12.9345 15.9755 12.9716 15.8558 12.9713L15.7855 12.9674C15.7162 12.9587 15.6486 12.9373 15.5863 12.9049C15.5035 12.8618 15.4324 12.7994 15.3783 12.7233C14.9231 12.0774 14.3188 11.5503 13.6176 11.1862C13.0041 10.8676 12.3317 10.6814 11.6439 10.6393L11.348 10.6305L11.2328 10.6188C11.1208 10.5963 11.017 10.5415 10.9349 10.4596C10.8254 10.3501 10.7631 10.2014 10.7631 10.0465C10.7631 9.89155 10.8254 9.74299 10.9349 9.63342C11.0445 9.52387 11.1931 9.46155 11.348 9.46155C12.0563 9.46146 12.7359 9.18014 13.2367 8.67932C13.7374 8.17846 14.0189 7.49886 14.0189 6.79065C14.0188 6.0824 13.7375 5.40279 13.2367 4.90198C12.7359 4.40117 12.0563 4.11984 11.348 4.11975C11.1038 4.11929 10.8602 4.15334 10.6254 4.22034L10.6234 4.22131C10.5494 4.24332 10.4717 4.25002 10.3949 4.24182C10.3178 4.23357 10.2431 4.20986 10.1752 4.17249C10.1073 4.13511 10.0475 4.08472 9.99939 4.02405C9.95124 3.96337 9.91588 3.89354 9.8949 3.81897C9.87395 3.74443 9.86787 3.66632 9.87732 3.58948C9.88679 3.51279 9.9113 3.43883 9.94958 3.3717C9.98802 3.30441 10.0395 3.2451 10.101 3.19788C10.1623 3.15075 10.2323 3.11615 10.307 3.09631L10.3099 3.09534C10.6471 2.99935 10.9965 2.95123 11.347 2.95178ZM6.24548 2.9469C7.03286 2.9469 7.80149 3.18892 8.44666 3.64026C9.0919 4.09176 9.58309 4.73145 9.85291 5.47131C10.1226 6.21106 10.1585 7.01624 9.95544 7.77698C9.75229 8.5377 9.3197 9.21736 8.71716 9.72424L8.51501 9.89514L8.75623 10.0045C9.62481 10.3976 10.3877 10.9877 10.9847 11.7262L11.2299 12.0514L11.2347 12.0582C11.2834 12.1206 11.3191 12.1926 11.3392 12.2692C11.3593 12.3456 11.3635 12.4254 11.3519 12.5035C11.3403 12.5818 11.3133 12.6569 11.2719 12.7242C11.2304 12.7916 11.1754 12.8496 11.1107 12.8951C11.046 12.9407 10.9723 12.9725 10.8949 12.9889C10.8176 13.0052 10.738 13.0062 10.6605 12.9908C10.5829 12.9754 10.509 12.9438 10.4437 12.899C10.4112 12.8767 10.3811 12.8512 10.3539 12.8229L10.2806 12.7301L10.2758 12.7233C9.82148 12.0764 9.21837 11.5478 8.51697 11.1832C7.81548 10.8186 7.03606 10.6285 6.24548 10.6285C5.45513 10.6286 4.6763 10.8188 3.97498 11.1832C3.27347 11.5478 2.66951 12.0762 2.21521 12.7233V12.7242C2.16181 12.8009 2.09007 12.8637 2.0072 12.9069C1.92441 12.9499 1.83194 12.9716 1.73865 12.9713H1.73767C1.61794 12.9716 1.5011 12.9345 1.40369 12.8649H1.40271C1.27632 12.7756 1.1909 12.6394 1.16443 12.4869C1.13803 12.3346 1.17321 12.1779 1.26208 12.0514C1.88901 11.1604 2.74315 10.4537 3.73572 10.0045L3.97693 9.89514L3.7738 9.72424C3.17143 9.21741 2.73963 8.53755 2.5365 7.77698C2.33342 7.01619 2.36932 6.21109 2.63904 5.47131C2.90885 4.73147 3.39909 4.09176 4.04431 3.64026C4.68947 3.18881 5.45806 2.94696 6.24548 2.9469ZM6.76697 4.17151C6.2489 4.06846 5.71201 4.12174 5.224 4.32385C4.73595 4.52601 4.31827 4.86802 4.02478 5.30725C3.73144 5.74634 3.57466 6.26259 3.57458 6.79065C3.57458 7.49887 3.85612 8.17846 4.35681 8.67932C4.85764 9.18015 5.53721 9.46147 6.24548 9.46155C6.77374 9.46155 7.29063 9.30484 7.72986 9.01135C8.16892 8.71789 8.51115 8.30102 8.71326 7.81311C8.91538 7.32514 8.96859 6.78818 8.8656 6.27014C8.76254 5.75203 8.50769 5.27551 8.13416 4.90198C7.7607 4.52865 7.28487 4.27455 6.76697 4.17151Z" fill="#4CAF4F" stroke="#4CAF4F" stroke-width="0.333867"/>
</g>
<defs>
<clipPath id="clip0_212_1407">
<rect width="16.0256" height="16.0256" fill="white" transform="translate(0.737061 0.0301514)"/>
</clipPath>
</defs>
</svg>
